<svg width="108" height="108" viewBox="0 0 108 108" fill="none" xmlns="http://www.w3.org/2000/svg">
<path d="M61.4081 31.0686C55.7591 35.4895 51.879 35.087 47.9988 32.5072C43.8093 37.2426 40.3527 39.46 37.463 40.0356C40.9749 55.6756 52.2132 86.9555 69.0706 86.9555C82.4799 86.9555 85.0341 69.7613 81.5221 59.2537C78.0101 48.7462 64.2816 31.0686 61.4081 31.0686Z" fill="#5555CC"/>
<path d="M68.6026 19.1429C69.6558 17.8298 71.5762 17.6168 72.8929 18.6672C74.2095 19.7176 74.4231 21.6328 73.3699 22.9459C70.8253 26.1181 68.5064 28.7104 66.3575 30.778C66.7239 31.1268 67.0993 31.499 67.4756 31.8915C69.3389 33.8354 71.5191 36.4814 73.6845 39.4158C77.9683 45.2212 82.5078 52.5768 84.4177 58.2912C86.3625 64.1099 86.6423 71.7136 84.5385 78.0081C83.4762 81.1863 81.7518 84.1874 79.1584 86.4125C76.5184 88.6774 73.1325 90 69.0707 90C63.8474 90 59.2824 87.5663 55.4529 84.0695C51.6332 80.5815 48.3475 75.8659 45.5827 70.8198C40.6014 61.728 37.0506 51.0775 35.0806 43.204C31.5009 42.914 28.7623 40.7548 26.7906 38.3781C24.3763 35.4675 22.6014 31.6427 21.3226 29.092C20.5691 27.5882 21.1804 25.76 22.6881 25.008C24.1963 24.256 26.0306 24.8658 26.7847 26.3698C28.2196 29.232 29.6392 32.2586 31.4954 34.4963C33.2795 36.6469 34.9219 37.4375 36.865 37.0504C38.7803 36.6689 41.6825 35.0441 45.7095 30.4925L47.4745 28.4988L49.6927 29.9737C51.3023 31.0438 52.5862 31.4504 53.8578 31.3742C55.1758 31.295 56.9762 30.6667 59.524 28.6728C61.978 26.7521 64.9371 23.7125 68.6026 19.1429ZM61.6036 34.6881C59.1057 36.3545 56.678 37.3048 54.223 37.4519C52.1539 37.5758 50.2942 37.1162 48.603 36.3368C45.9907 39.013 43.4963 40.9002 41.0763 42.0176C42.969 49.4968 46.3318 59.4858 50.9419 67.8999C53.5329 72.6288 56.4378 76.7123 59.5762 79.5781C62.7045 82.4346 65.8655 83.9104 69.0707 83.9104C71.7134 83.9104 73.6761 83.0836 75.1767 81.7963C76.7232 80.4693 77.9322 78.5158 78.7455 76.0828C80.393 71.1534 80.1934 64.9054 78.6262 60.2165C77.0242 55.4234 72.9433 48.6859 68.7665 43.0256C66.7018 40.2275 64.6916 37.7979 63.063 36.0989C62.5015 35.5131 62.0109 35.0451 61.6036 34.6881Z" fill="black"/>
<path d="M53.3544 45.4902C54.0995 44.7471 55.3074 44.7471 56.0526 45.4902C58.6556 48.0862 61.8763 53.0706 64.5259 57.995C67.1629 62.8962 69.4599 68.1551 69.9954 71.3592C70.1684 72.3955 69.4662 73.3761 68.4271 73.5491C67.3878 73.7218 66.4048 73.0215 66.2313 71.9851C65.8089 69.4577 63.7937 64.6854 61.1628 59.7954C58.5445 54.929 55.5403 50.3612 53.3544 48.1812C52.6092 47.438 52.6092 46.2334 53.3544 45.4902Z" fill="black"/>
</svg>
