<svg width="108" height="108" viewBox="0 0 108 108" fill="none" xmlns="http://www.w3.org/2000/svg">
<rect width="108" height="108" fill="#D3CDCD"/>
<path d="M62.7822 49.2904C59.0816 52.1943 56.5397 51.9299 53.9979 50.2353C51.2533 53.3458 48.989 54.8022 47.0959 55.1804C49.3966 65.4536 56.7586 86 67.8018 86C76.5861 86 78.2593 74.7059 75.9586 67.8039C73.658 60.902 64.6645 49.2904 62.7822 49.2904Z" fill="#5555CC"/>
<path d="M69.0567 42.7059C66.611 45.763 64.5625 47.8933 62.7822 49.2904C59.0816 52.1943 56.5397 51.9299 53.9979 50.2353C51.2533 53.3458 48.989 54.8022 47.0959 55.1804C42.4972 56.0989 40.0895 50.6539 38.3116 47.098M62.7822 49.2904C64.6645 49.2904 73.658 60.902 75.9586 67.8039C78.2593 74.7059 76.5861 86 67.8018 86C56.7586 86 49.3966 65.4536 47.0959 55.1804" stroke="black" stroke-width="4" stroke-linecap="round"/>
<path d="M58.39 59.6471C61.5273 62.7843 66.5469 72.1961 67.1743 75.9608" stroke="black" stroke-width="2.5" stroke-linecap="round"/>
<circle cx="31.4096" cy="27.0196" r="5.01961" fill="black"/>
<circle cx="76.5861" cy="27.0196" r="5.01961" fill="black"/>
</svg>
